<svg width="268" height="71" viewBox="0 0 268 71" fill="none" xmlns="http://www.w3.org/2000/svg">
<g clip-path="url(#clip0_2_875)">
<mask id="mask0_2_875" style="mask-type:luminance" maskUnits="userSpaceOnUse" x="0" y="0" width="77" height="71">
<path d="M76.9178 0.083374H0.0501709V70.9166H76.9178V0.083374Z" fill="white"/>
</mask>
<g mask="url(#mask0_2_875)">
<path fill-rule="evenodd" clip-rule="evenodd" d="M29.8719 53.3472L55.1228 28.1609C57.241 26.0481 60.5298 26.0481 62.5365 28.1609L71.1207 36.7231C73.2389 38.8359 73.2389 42.1162 71.1207 44.1178L45.8697 69.4154C43.7516 71.5281 40.4628 71.5281 38.4561 69.4154L29.8719 60.8531C27.7537 58.7403 27.7537 55.46 29.8719 53.3472Z" fill="#5426FF"/>
<path fill-rule="evenodd" clip-rule="evenodd" d="M29.8719 53.3472L55.1228 28.1609C57.241 26.0481 60.5298 26.0481 62.5365 28.1609L71.1207 36.7231C73.2389 38.8359 73.2389 42.1162 71.1207 44.1178L45.8697 69.4154C43.7516 71.5281 40.4628 71.5281 38.4561 69.4154L29.8719 60.8531C27.7537 58.7403 27.7537 55.46 29.8719 53.3472Z" fill="#5426FF"/>
<path opacity="0.5" fill-rule="evenodd" clip-rule="evenodd" d="M59.3035 45.3966C61.4216 43.2839 61.4216 40.0035 59.3035 38.0019L52.28 30.9965L29.8719 53.3473C27.7537 55.46 27.7537 58.7404 29.8719 60.742L36.8953 67.7474L59.3035 45.3966Z" fill="#4911D4"/>
<path fill-rule="evenodd" clip-rule="evenodd" d="M4.17506 25.8258L28.3669 1.58457C30.4851 -0.528191 33.7738 -0.528191 35.7805 1.58457L44.3647 10.1468C46.4829 12.2596 46.4829 15.5399 44.3647 17.5415L20.1172 41.7271C17.999 43.8399 14.7102 43.8399 12.7035 41.7271L4.17506 33.2204C2.05688 31.2189 2.05688 27.8273 4.17506 25.8258Z" fill="#5426FF"/>
<path opacity="0.5" fill-rule="evenodd" clip-rule="evenodd" d="M44.4204 17.6528C46.5386 15.54 46.5386 12.2597 44.4204 10.2581L37.9544 3.80859L15.8807 25.8258C13.7626 27.9386 13.7626 31.2189 15.8807 33.2205L22.3468 39.6144L44.4204 17.6528Z" fill="#4911D4"/>
<path fill-rule="evenodd" clip-rule="evenodd" d="M74.6882 21.8226L67.9992 22.9902C66.8286 23.2125 65.7695 22.879 64.9334 22.045L50.9422 8.0896C47.8764 5.03166 42.7482 5.03166 39.6824 8.0896L0.273124 47.3425C-0.340033 47.9541 0.161641 48.7325 0.997765 48.6213L8.29991 47.4537C9.359 47.3425 10.4181 47.5649 11.1427 48.3989L24.9667 62.1875C28.4784 65.6902 33.0492 65.4678 36.5609 61.8539L75.4128 23.1014C75.9702 22.5454 75.4128 21.6002 74.6882 21.8226ZM52.0571 29.5508L34.1083 47.4537C32.3245 49.2329 29.426 49.2329 27.6422 47.4537L23.7961 43.6174C23.1829 43.0058 23.0714 42.005 23.7961 41.2822L42.0793 23.0458C43.5843 21.5446 46.2042 21.5446 47.7092 23.0458L52.0571 27.3825C52.6145 27.9385 52.6145 28.9949 52.0571 29.5508Z" fill="#CD40A7"/>
<path fill-rule="evenodd" clip-rule="evenodd" d="M54.7326 43.7287L51.7783 40.4484L40.0169 41.5047L34.0525 47.4538C32.2688 49.233 29.3702 49.233 27.5865 47.4538L33.6066 53.4585C37.1183 56.9613 41.6891 56.7389 45.2008 53.125L54.7326 43.7287Z" fill="url(#paint0_linear_2_875)"/>
<path fill-rule="evenodd" clip-rule="evenodd" d="M30.5408 17.1523L18.7236 28.9949C22.9599 31.9416 27.6422 35.222 27.6422 35.222C27.6422 35.222 27.8652 35.8336 28.2554 36.612L42.0793 22.8234C43.5843 21.3222 46.2042 21.3222 47.7092 22.8234L41.9678 17.0411C38.7905 13.9832 33.7181 13.9832 30.5408 17.1523Z" fill="url(#paint1_linear_2_875)"/>
</g>
<path d="M130.151 38.9471V30.4405H135.67L143.306 38.9471H146.985L138.011 28.9949L146.985 19.2095H143.306L135.67 27.7161H130.151V13.9832H127.364V38.9471H130.151Z" fill="white"/>
<path d="M263.875 19.2095H250.72V13.9832H247.822V38.9471H263.875C264.934 38.9471 266.049 38.6135 266.774 37.7796C267.61 36.9456 267.944 36.0004 267.944 34.8884V23.435C267.944 22.3786 267.61 21.2666 266.774 20.5438C266.049 19.5987 264.934 19.2095 263.875 19.2095ZM265.213 34.8884C265.213 35.222 265.101 35.6112 264.879 35.8336C264.656 36.056 264.265 36.1672 263.931 36.1672H252.114C251.779 36.1672 251.389 36.056 251.166 35.8336C250.943 35.6112 250.832 35.222 250.832 34.8884V23.435C250.832 23.1014 250.943 22.7122 251.166 22.4898C251.389 22.2674 251.779 22.1562 252.114 22.1562H263.931C264.265 22.1562 264.656 22.2674 264.879 22.4898C265.101 22.7122 265.213 23.1014 265.213 23.435V34.8884Z" fill="white"/>
<path d="M152.392 13.9832H149.661V15.5399H152.392V13.9832Z" fill="white"/>
<path d="M103.562 38.9471H119.95C121.009 38.9471 122.124 38.6135 122.849 37.7795C123.685 36.9455 124.019 36.0004 124.019 34.8884V29.3841C124.019 28.3277 123.685 27.2157 122.849 26.4929C122.013 25.6589 121.065 25.3253 119.95 25.3253H103.562C103.228 25.3253 102.838 25.2141 102.615 24.9917C102.392 24.7693 102.28 24.3802 102.28 24.0466V18.5423C102.28 18.2087 102.392 17.8195 102.615 17.5971C102.838 17.3747 103.228 17.2635 103.562 17.2635H119.95C120.285 17.2635 120.675 17.3747 120.898 17.5971C121.121 17.8195 121.232 18.2087 121.232 18.5423V19.4874H123.964V18.5423C123.964 17.4859 123.629 16.3739 122.793 15.6511C121.957 14.8171 121.009 14.4835 119.895 14.4835H103.507C102.336 14.4835 101.333 14.8171 100.608 15.6511C99.7719 16.4851 99.4374 17.4303 99.4374 18.5423V23.991C99.4374 25.1585 99.7719 26.1593 100.608 26.8821C101.444 27.7161 102.392 28.0497 103.507 28.0497H119.895C120.229 28.0497 120.619 28.1609 120.842 28.3833C121.065 28.6057 121.177 28.9949 121.177 29.3285V34.8328C121.177 35.1664 121.065 35.5556 120.842 35.778C120.619 36.0004 120.229 36.1116 119.895 36.1116H103.507C103.172 36.1116 102.782 36.0004 102.559 35.778C102.336 35.5556 102.225 35.1664 102.225 34.8328V33.8876H99.4932V34.8328C99.4932 36.0004 99.8276 37.0011 100.664 37.7239C101.556 38.5579 102.503 38.9471 103.562 38.9471Z" fill="white"/>
<path d="M152.392 19.2095H149.661V38.8915H152.392V19.2095Z" fill="white"/>
<path d="M241.746 34.8884C241.746 35.222 241.634 35.6112 241.411 35.8336C241.188 36.056 240.798 36.1672 240.464 36.1672H228.591C228.256 36.1672 227.866 36.056 227.643 35.8336C227.42 35.6112 227.309 35.222 227.309 34.8884V19.2095H224.577V34.8328C224.577 35.8892 224.912 37.0012 225.748 37.724C226.584 38.5579 227.532 38.8915 228.646 38.8915H240.464C241.634 38.8915 242.638 38.5579 243.474 37.724C244.31 36.89 244.644 35.9448 244.644 34.8328V19.2095H241.913V34.8328H241.746V34.8884Z" fill="white"/>
<path d="M215.213 37.724C216.049 38.5579 216.996 38.8915 218.111 38.8915H221.456V36.1672H218.111C217.777 36.1672 217.387 36.056 217.164 35.8336C216.941 35.6112 216.829 35.222 216.829 34.8884V13.9832H214.098V34.8884C213.986 35.9448 214.377 36.89 215.213 37.724Z" fill="white"/>
<path d="M187.453 15.6511C186.617 16.4851 186.283 17.4302 186.283 18.5422V34.7772C186.283 35.9447 186.617 36.9455 187.453 37.6683C188.29 38.5023 189.237 38.8359 190.352 38.8359H210.698V36.1115H190.352C190.018 36.1115 189.627 36.0003 189.404 35.7779C189.181 35.5555 189.07 35.1663 189.07 34.8328V18.5422C189.07 18.2086 189.181 17.8194 189.404 17.597C189.627 17.3746 190.018 17.2634 190.352 17.2634H210.698V14.5391H190.352C189.237 14.4835 188.29 14.9283 187.453 15.6511Z" fill="white"/>
<path d="M172.236 19.2095H156.182V38.8915H158.914V23.2682C158.914 22.9346 159.025 22.5454 159.248 22.323C159.471 22.1006 159.861 21.9894 160.196 21.9894H172.013C172.347 21.9894 172.738 22.1006 172.961 22.323C173.184 22.5454 173.295 22.9346 173.295 23.2682V38.8915H176.026V23.2682C176.026 22.2118 175.692 21.0998 174.856 20.3771C174.187 19.7099 173.351 19.2095 172.236 19.2095Z" fill="white"/>
<path d="M182.381 36.1672H179.65V38.8916H182.381V36.1672Z" fill="white"/>
<path d="M176.361 50.2338C176.249 50.2338 176.138 50.345 176.138 50.4562V55.5713C176.138 55.6825 176.249 55.7937 176.361 55.7937H182.883V57.0169H176.361C175.58 57.0169 174.912 56.3497 174.912 55.5713V50.4562C174.912 49.6778 175.58 49.0106 176.361 49.0106H182.883V50.2338H176.361Z" fill="white"/>
<path d="M189.07 50.5674C189.85 50.5674 190.519 51.2346 190.519 52.013V55.5713C190.519 56.3497 189.85 57.0169 189.07 57.0169H185.391C184.611 57.0169 183.942 56.3497 183.942 55.5713V52.013C183.942 51.2346 184.611 50.5674 185.391 50.5674H189.07ZM185.391 51.7906C185.28 51.7906 185.168 51.9018 185.168 52.013V55.5713C185.168 55.6825 185.28 55.7937 185.391 55.7937H189.07C189.181 55.7937 189.293 55.6825 189.293 55.5713V52.013C189.293 51.9018 189.181 51.7906 189.07 51.7906H185.391Z" fill="white"/>
<path d="M198.044 50.5674V55.5713C198.044 56.3497 197.375 57.0169 196.595 57.0169H192.916C192.136 57.0169 191.467 56.3497 191.467 55.5713V50.5674H192.693V55.5713C192.693 55.6825 192.805 55.7937 192.916 55.7937H196.595C196.707 55.7937 196.818 55.6825 196.818 55.5713V50.5674H198.044Z" fill="white"/>
<path d="M205.792 52.0128V57.0168H204.566V52.0128C204.566 51.9017 204.455 51.7905 204.343 51.7905H200.664C200.553 51.7905 200.441 51.9017 200.441 52.0128V57.0168H199.215V50.6229H204.343C205.124 50.5673 205.792 51.2345 205.792 52.0128Z" fill="white"/>
<path d="M208.134 51.7905V55.5713C208.134 55.6825 208.245 55.7937 208.357 55.7937H210.753V57.0168H208.357C207.576 57.0168 206.907 56.3497 206.907 55.5713V48.4546H208.134V50.5674H210.753V51.7905H208.134Z" fill="white"/>
<path d="M218 52.013V54.4037H212.649V55.5713C212.649 55.6825 212.76 55.7937 212.872 55.7937H218V57.0169H212.872C212.091 57.0169 211.422 56.3497 211.422 55.5713V52.013C211.422 51.2346 212.091 50.5674 212.872 50.5674H216.551C217.387 50.5674 218 51.2346 218 52.013ZM216.829 53.1805V52.013C216.829 51.9018 216.718 51.7906 216.606 51.7906H212.927C212.816 51.7906 212.704 51.9018 212.704 52.013V53.1805H216.829Z" fill="white"/>
<path d="M223.964 50.5674V51.7906H220.341C220.229 51.7906 220.118 51.9018 220.118 52.013V57.0169H218.892V52.013C218.892 51.2346 219.561 50.5674 220.341 50.5674H223.964Z" fill="white"/>
<path d="M229.148 53.1249H224.689V54.3481H229.148V53.1249Z" fill="white"/>
<path d="M238.346 50.9566H237.119V50.5118C237.119 50.4006 237.008 50.2894 236.896 50.2894H231.768C231.657 50.2894 231.545 50.4006 231.545 50.5118V52.2354C231.545 52.3466 231.657 52.4578 231.768 52.4578H236.896C237.677 52.4578 238.346 53.1249 238.346 53.9033V55.6269C238.346 56.4053 237.677 57.0725 236.896 57.0725H231.768C230.988 57.0725 230.319 56.4053 230.319 55.6269V55.1265H231.545V55.5713C231.545 55.6825 231.657 55.7937 231.768 55.7937H236.896C237.008 55.7937 237.119 55.6825 237.119 55.5713V53.8477C237.119 53.7365 237.008 53.6253 236.896 53.6253H231.768C230.988 53.6253 230.319 52.9582 230.319 52.1798V50.4562C230.319 49.6778 230.988 49.0106 231.768 49.0106H236.896C237.677 49.0106 238.346 49.6778 238.346 50.4562V50.9566Z" fill="white"/>
<path d="M240.687 51.7905V55.5713C240.687 55.6825 240.798 55.7937 240.91 55.7937H243.306V57.0168H240.91C240.129 57.0168 239.46 56.3497 239.46 55.5713V48.4546H240.687V50.5674H243.306V51.7905H240.687Z" fill="white"/>
<path d="M249.048 50.5674V51.7906H245.425C245.313 51.7906 245.202 51.9018 245.202 52.013V57.0169H243.975V52.013C243.975 51.2346 244.644 50.5674 245.425 50.5674H249.048Z" fill="white"/>
<path d="M250.887 48.5101V49.7333H249.661V48.5101H250.887ZM249.717 50.5673H250.943V56.9612H249.717V50.5673Z" fill="white"/>
<path d="M258.524 50.5673V50.7341L255.737 53.792L258.524 56.85V57.0168H257.075L254.678 54.4036H253.228V57.0168H252.058V48.5101H253.228V53.1805H254.678L257.075 50.5673H258.524Z" fill="white"/>
<path d="M265.436 52.013V54.4037H260.085V55.5713C260.085 55.6825 260.196 55.7937 260.308 55.7937H265.436V57.0169H260.363C259.583 57.0169 258.914 56.3497 258.914 55.5713V52.013C258.914 51.2346 259.583 50.5674 260.363 50.5674H264.042C264.823 50.5674 265.436 51.2346 265.436 52.013ZM264.265 53.1805V52.013C264.265 51.9018 264.154 51.7906 264.042 51.7906H260.363C260.252 51.7906 260.14 51.9018 260.14 52.013V53.1805H264.265Z" fill="white"/>
<path d="M113.763 50.5674V51.7906H110.14C110.028 51.7906 109.917 51.9018 109.917 52.013V57.0169H108.691V52.013C108.691 51.2346 109.359 50.5674 110.14 50.5674H113.763Z" fill="white"/>
<path d="M115.603 48.5101V49.7333H114.376V48.5101H115.603ZM114.376 50.5673H115.603V56.9612H114.376V50.5673Z" fill="white"/>
<path d="M124.633 50.5674L121.121 57.0169H119.895L116.327 50.5674H117.721L120.508 55.6825L123.295 50.5674H124.633Z" fill="white"/>
<path d="M131.322 52.013V54.4037H125.97V55.5713C125.97 55.6825 126.082 55.7937 126.193 55.7937H131.322V57.0169H126.193C125.413 57.0169 124.744 56.3497 124.744 55.5713V52.013C124.744 51.2346 125.413 50.5674 126.193 50.5674H129.872C130.653 50.5674 131.322 51.2346 131.322 52.013ZM130.095 53.1805V52.013C130.095 51.9018 129.984 51.7906 129.872 51.7906H126.193C126.082 51.7906 125.97 51.9018 125.97 52.013V53.1805H130.095Z" fill="white"/>
<path d="M133.719 55.7937H132.492V57.0169H133.719V55.7937Z" fill="white"/>
<path d="M268 55.7937H266.774V57.0169H268V55.7937Z" fill="white"/>
<path d="M137.955 49.0106H139.125V55.7937H145.926V57.0169H137.955V49.0106Z" fill="white"/>
<path d="M151.612 50.5674C152.392 50.5674 153.061 51.2346 153.061 52.013V55.5713C153.061 56.3497 152.392 57.0169 151.612 57.0169H147.933C147.152 57.0169 146.483 56.3497 146.483 55.5713V52.013C146.483 51.2346 147.152 50.5674 147.933 50.5674H151.612ZM147.933 51.7906C147.821 51.7906 147.71 51.9018 147.71 52.013V55.5713C147.71 55.6825 147.821 55.7937 147.933 55.7937H151.612C151.723 55.7937 151.835 55.6825 151.835 55.5713V52.013C151.835 51.9018 151.723 51.7906 151.612 51.7906H147.933Z" fill="white"/>
<path d="M161.757 50.5674L158.245 57.0169H157.019L153.451 50.5674H154.845L157.632 55.6825L160.419 50.5674H161.757Z" fill="white"/>
<path d="M168.446 52.013V54.4037H163.094V55.5713C163.094 55.6825 163.206 55.7937 163.317 55.7937H168.446V57.0169H163.317C162.537 57.0169 161.868 56.3497 161.868 55.5713V52.013C161.868 51.2346 162.537 50.5674 163.317 50.5674H166.996C167.777 50.5674 168.446 51.2346 168.446 52.013ZM167.219 53.1805V52.013C167.219 51.9018 167.108 51.7906 166.996 51.7906H163.317C163.206 51.7906 163.094 51.9018 163.094 52.013V53.1805H167.219Z" fill="white"/>
<path d="M170.787 55.7937H169.56V57.0169H170.787V55.7937Z" fill="white"/>
<path d="M104.956 50.2893C105.681 50.2893 106.294 50.9009 106.294 51.6237V54.4593C106.294 55.1821 105.681 55.7936 104.956 55.7936H100.775V50.2893H104.956ZM104.956 49.0662H99.549V57.0168H104.956C106.405 57.0168 107.52 55.8492 107.52 54.4593V51.6237C107.52 50.1781 106.349 49.0662 104.956 49.0662Z" fill="white"/>
</g>
<defs>
<linearGradient id="paint0_linear_2_875" x1="12.893" y1="62.7325" x2="44.5533" y2="46.3091" gradientUnits="userSpaceOnUse">
<stop stop-color="#6311DD"/>
<stop offset="1" stop-color="#6311DD" stop-opacity="0"/>
</linearGradient>
<linearGradient id="paint1_linear_2_875" x1="59.4595" y1="-0.733919" x2="34.0297" y2="25.2125" gradientUnits="userSpaceOnUse">
<stop stop-color="#6311DD"/>
<stop offset="1" stop-color="#6311DD" stop-opacity="0"/>
</linearGradient>
<clipPath id="clip0_2_875">
<rect width="268" height="71" fill="white"/>
</clipPath>
</defs>
</svg>
