<svg display="none" xmlns="http://www.w3.org/2000/svg">
  <symbol
    id="skin-club-logo"
    xmlns="http://www.w3.org/2000/svg"
    role="img"
    aria-labelledby="pi-master"
  >
    <g clipPath="url(#clip0_2_875)">
      <mask
        id="mask0_2_875"
        styles="mask-type:luminance"
        maskUnits="userSpaceOnUse"
        x="0"
        y="0"
        width="77"
        height="71"
      >
        <path
          d="M76.9178 0.083374H0.0501709V70.9166H76.9178V0.083374Z"
          fill="white"
        />
      </mask>
      <g mask="url(#mask0_2_875)">
        <path
          fillRule="evenodd"
          clipRule="evenodd"
          d="M29.8719 53.3472L55.1228 28.1609C57.241 26.0481 60.5298 26.0481 62.5365 28.1609L71.1207 36.7231C73.2389 38.8359 73.2389 42.1162 71.1207 44.1178L45.8697 69.4154C43.7516 71.5281 40.4628 71.5281 38.4561 69.4154L29.8719 60.8531C27.7537 58.7403 27.7537 55.46 29.8719 53.3472Z"
          fill="#5426FF"
        />
        <path
          fillRule="evenodd"
          clipRule="evenodd"
          d="M29.8719 53.3472L55.1228 28.1609C57.241 26.0481 60.5298 26.0481 62.5365 28.1609L71.1207 36.7231C73.2389 38.8359 73.2389 42.1162 71.1207 44.1178L45.8697 69.4154C43.7516 71.5281 40.4628 71.5281 38.4561 69.4154L29.8719 60.8531C27.7537 58.7403 27.7537 55.46 29.8719 53.3472Z"
          fill="#5426FF"
        />
        <path
          opacity="0.5"
          fillRule="evenodd"
          clipRule="evenodd"
          d="M59.3035 45.3966C61.4216 43.2839 61.4216 40.0035 59.3035 38.0019L52.28 30.9965L29.8719 53.3473C27.7537 55.46 27.7537 58.7404 29.8719 60.742L36.8953 67.7474L59.3035 45.3966Z"
          fill="#4911D4"
        />
        <path
          fillRule="evenodd"
          clipRule="evenodd"
          d="M4.17506 25.8258L28.3669 1.58457C30.4851 -0.528191 33.7738 -0.528191 35.7805 1.58457L44.3647 10.1468C46.4829 12.2596 46.4829 15.5399 44.3647 17.5415L20.1172 41.7271C17.999 43.8399 14.7102 43.8399 12.7035 41.7271L4.17506 33.2204C2.05688 31.2189 2.05688 27.8273 4.17506 25.8258Z"
          fill="#5426FF"
        />
        <path
          opacity="0.5"
          fillRule="evenodd"
          clipRule="evenodd"
          d="M44.4204 17.6528C46.5386 15.54 46.5386 12.2597 44.4204 10.2581L37.9544 3.80859L15.8807 25.8258C13.7626 27.9386 13.7626 31.2189 15.8807 33.2205L22.3468 39.6144L44.4204 17.6528Z"
          fill="#4911D4"
        />
        <path
          fillRule="evenodd"
          clipRule="evenodd"
          d="M74.6882 21.8226L67.9992 22.9902C66.8286 23.2125 65.7695 22.879 64.9334 22.045L50.9422 8.0896C47.8764 5.03166 42.7482 5.03166 39.6824 8.0896L0.273124 47.3425C-0.340033 47.9541 0.161641 48.7325 0.997765 48.6213L8.29991 47.4537C9.359 47.3425 10.4181 47.5649 11.1427 48.3989L24.9667 62.1875C28.4784 65.6902 33.0492 65.4678 36.5609 61.8539L75.4128 23.1014C75.9702 22.5454 75.4128 21.6002 74.6882 21.8226ZM52.0571 29.5508L34.1083 47.4537C32.3245 49.2329 29.426 49.2329 27.6422 47.4537L23.7961 43.6174C23.1829 43.0058 23.0714 42.005 23.7961 41.2822L42.0793 23.0458C43.5843 21.5446 46.2042 21.5446 47.7092 23.0458L52.0571 27.3825C52.6145 27.9385 52.6145 28.9949 52.0571 29.5508Z"
          fill="#CD40A7"
        />
        <path
          fillRule="evenodd"
          clipRule="evenodd"
          d="M54.7326 43.7287L51.7783 40.4484L40.0169 41.5047L34.0525 47.4538C32.2688 49.233 29.3702 49.233 27.5865 47.4538L33.6066 53.4585C37.1183 56.9613 41.6891 56.7389 45.2008 53.125L54.7326 43.7287Z"
          fill="url(#paint0_linear_2_875)"
        />
        <path
          fillRule="evenodd"
          clipRule="evenodd"
          d="M30.5408 17.1523L18.7236 28.9949C22.9599 31.9416 27.6422 35.222 27.6422 35.222C27.6422 35.222 27.8652 35.8336 28.2554 36.612L42.0793 22.8234C43.5843 21.3222 46.2042 21.3222 47.7092 22.8234L41.9678 17.0411C38.7905 13.9832 33.7181 13.9832 30.5408 17.1523Z"
          fill="url(#paint1_linear_2_875)"
        />
      </g>
      <path
        d="M130.151 38.9471V30.4405H135.67L143.306 38.9471H146.985L138.011 28.9949L146.985 19.2095H143.306L135.67 27.7161H130.151V13.9832H127.364V38.9471H130.151Z"
        fill="white"
      />
      <path
        d="M263.875 19.2095H250.72V13.9832H247.822V38.9471H263.875C264.934 38.9471 266.049 38.6135 266.774 37.7796C267.61 36.9456 267.944 36.0004 267.944 34.8884V23.435C267.944 22.3786 267.61 21.2666 266.774 20.5438C266.049 19.5987 264.934 19.2095 263.875 19.2095ZM265.213 34.8884C265.213 35.222 265.101 35.6112 264.879 35.8336C264.656 36.056 264.265 36.1672 263.931 36.1672H252.114C251.779 36.1672 251.389 36.056 251.166 35.8336C250.943 35.6112 250.832 35.222 250.832 34.8884V23.435C250.832 23.1014 250.943 22.7122 251.166 22.4898C251.389 22.2674 251.779 22.1562 252.114 22.1562H263.931C264.265 22.1562 264.656 22.2674 264.879 22.4898C265.101 22.7122 265.213 23.1014 265.213 23.435V34.8884Z"
        fill="white"
      />
      <path
        d="M152.392 13.9832H149.661V15.5399H152.392V13.9832Z"
        fill="white"
      />
      <path
        d="M103.562 38.9471H119.95C121.009 38.9471 122.124 38.6135 122.849 37.7795C123.685 36.9455 124.019 36.0004 124.019 34.8884V29.3841C124.019 28.3277 123.685 27.2157 122.849 26.4929C122.013 25.6589 121.065 25.3253 119.95 25.3253H103.562C103.228 25.3253 102.838 25.2141 102.615 24.9917C102.392 24.7693 102.28 24.3802 102.28 24.0466V18.5423C102.28 18.2087 102.392 17.8195 102.615 17.5971C102.838 17.3747 103.228 17.2635 103.562 17.2635H119.95C120.285 17.2635 120.675 17.3747 120.898 17.5971C121.121 17.8195 121.232 18.2087 121.232 18.5423V19.4874H123.964V18.5423C123.964 17.4859 123.629 16.3739 122.793 15.6511C121.957 14.8171 121.009 14.4835 119.895 14.4835H103.507C102.336 14.4835 101.333 14.8171 100.608 15.6511C99.7719 16.4851 99.4374 17.4303 99.4374 18.5423V23.991C99.4374 25.1585 99.7719 26.1593 100.608 26.8821C101.444 27.7161 102.392 28.0497 103.507 28.0497H119.895C120.229 28.0497 120.619 28.1609 120.842 28.3833C121.065 28.6057 121.177 28.9949 121.177 29.3285V34.8328C121.177 35.1664 121.065 35.5556 120.842 35.778C120.619 36.0004 120.229 36.1116 119.895 36.1116H103.507C103.172 36.1116 102.782 36.0004 102.559 35.778C102.336 35.5556 102.225 35.1664 102.225 34.8328V33.8876H99.4932V34.8328C99.4932 36.0004 99.8276 37.0011 100.664 37.7239C101.556 38.5579 102.503 38.9471 103.562 38.9471Z"
        fill="white"
      />
      <path
        d="M152.392 19.2095H149.661V38.8915H152.392V19.2095Z"
        fill="white"
      />
      <path
        d="M241.746 34.8884C241.746 35.222 241.634 35.6112 241.411 35.8336C241.188 36.056 240.798 36.1672 240.464 36.1672H228.591C228.256 36.1672 227.866 36.056 227.643 35.8336C227.42 35.6112 227.309 35.222 227.309 34.8884V19.2095H224.577V34.8328C224.577 35.8892 224.912 37.0012 225.748 37.724C226.584 38.5579 227.532 38.8915 228.646 38.8915H240.464C241.634 38.8915 242.638 38.5579 243.474 37.724C244.31 36.89 244.644 35.9448 244.644 34.8328V19.2095H241.913V34.8328H241.746V34.8884Z"
        fill="white"
      />
      <path
        d="M215.213 37.724C216.049 38.5579 216.996 38.8915 218.111 38.8915H221.456V36.1672H218.111C217.777 36.1672 217.387 36.056 217.164 35.8336C216.941 35.6112 216.829 35.222 216.829 34.8884V13.9832H214.098V34.8884C213.986 35.9448 214.377 36.89 215.213 37.724Z"
        fill="white"
      />
      <path
        d="M187.453 15.6511C186.617 16.4851 186.283 17.4302 186.283 18.5422V34.7772C186.283 35.9447 186.617 36.9455 187.453 37.6683C188.29 38.5023 189.237 38.8359 190.352 38.8359H210.698V36.1115H190.352C190.018 36.1115 189.627 36.0003 189.404 35.7779C189.181 35.5555 189.07 35.1663 189.07 34.8328V18.5422C189.07 18.2086 189.181 17.8194 189.404 17.597C189.627 17.3746 190.018 17.2634 190.352 17.2634H210.698V14.5391H190.352C189.237 14.4835 188.29 14.9283 187.453 15.6511Z"
        fill="white"
      />
      <path
        d="M172.236 19.2095H156.182V38.8915H158.914V23.2682C158.914 22.9346 159.025 22.5454 159.248 22.323C159.471 22.1006 159.861 21.9894 160.196 21.9894H172.013C172.347 21.9894 172.738 22.1006 172.961 22.323C173.184 22.5454 173.295 22.9346 173.295 23.2682V38.8915H176.026V23.2682C176.026 22.2118 175.692 21.0998 174.856 20.3771C174.187 19.7099 173.351 19.2095 172.236 19.2095Z"
        fill="white"
      />
      <path
        d="M182.381 36.1672H179.65V38.8916H182.381V36.1672Z"
        fill="white"
      />
      <path
        d="M176.361 50.2338C176.249 50.2338 176.138 50.345 176.138 50.4562V55.5713C176.138 55.6825 176.249 55.7937 176.361 55.7937H182.883V57.0169H176.361C175.58 57.0169 174.912 56.3497 174.912 55.5713V50.4562C174.912 49.6778 175.58 49.0106 176.361 49.0106H182.883V50.2338H176.361Z"
        fill="white"
      />
      <path
        d="M189.07 50.5674C189.85 50.5674 190.519 51.2346 190.519 52.013V55.5713C190.519 56.3497 189.85 57.0169 189.07 57.0169H185.391C184.611 57.0169 183.942 56.3497 183.942 55.5713V52.013C183.942 51.2346 184.611 50.5674 185.391 50.5674H189.07ZM185.391 51.7906C185.28 51.7906 185.168 51.9018 185.168 52.013V55.5713C185.168 55.6825 185.28 55.7937 185.391 55.7937H189.07C189.181 55.7937 189.293 55.6825 189.293 55.5713V52.013C189.293 51.9018 189.181 51.7906 189.07 51.7906H185.391Z"
        fill="white"
      />
      <path
        d="M198.044 50.5674V55.5713C198.044 56.3497 197.375 57.0169 196.595 57.0169H192.916C192.136 57.0169 191.467 56.3497 191.467 55.5713V50.5674H192.693V55.5713C192.693 55.6825 192.805 55.7937 192.916 55.7937H196.595C196.707 55.7937 196.818 55.6825 196.818 55.5713V50.5674H198.044Z"
        fill="white"
      />
      <path
        d="M205.792 52.0128V57.0168H204.566V52.0128C204.566 51.9017 204.455 51.7905 204.343 51.7905H200.664C200.553 51.7905 200.441 51.9017 200.441 52.0128V57.0168H199.215V50.6229H204.343C205.124 50.5673 205.792 51.2345 205.792 52.0128Z"
        fill="white"
      />
      <path
        d="M208.134 51.7905V55.5713C208.134 55.6825 208.245 55.7937 208.357 55.7937H210.753V57.0168H208.357C207.576 57.0168 206.907 56.3497 206.907 55.5713V48.4546H208.134V50.5674H210.753V51.7905H208.134Z"
        fill="white"
      />
      <path
        d="M218 52.013V54.4037H212.649V55.5713C212.649 55.6825 212.76 55.7937 212.872 55.7937H218V57.0169H212.872C212.091 57.0169 211.422 56.3497 211.422 55.5713V52.013C211.422 51.2346 212.091 50.5674 212.872 50.5674H216.551C217.387 50.5674 218 51.2346 218 52.013ZM216.829 53.1805V52.013C216.829 51.9018 216.718 51.7906 216.606 51.7906H212.927C212.816 51.7906 212.704 51.9018 212.704 52.013V53.1805H216.829Z"
        fill="white"
      />
      <path
        d="M223.964 50.5674V51.7906H220.341C220.229 51.7906 220.118 51.9018 220.118 52.013V57.0169H218.892V52.013C218.892 51.2346 219.561 50.5674 220.341 50.5674H223.964Z"
        fill="white"
      />
      <path
        d="M229.148 53.1249H224.689V54.3481H229.148V53.1249Z"
        fill="white"
      />
      <path
        d="M238.346 50.9566H237.119V50.5118C237.119 50.4006 237.008 50.2894 236.896 50.2894H231.768C231.657 50.2894 231.545 50.4006 231.545 50.5118V52.2354C231.545 52.3466 231.657 52.4578 231.768 52.4578H236.896C237.677 52.4578 238.346 53.1249 238.346 53.9033V55.6269C238.346 56.4053 237.677 57.0725 236.896 57.0725H231.768C230.988 57.0725 230.319 56.4053 230.319 55.6269V55.1265H231.545V55.5713C231.545 55.6825 231.657 55.7937 231.768 55.7937H236.896C237.008 55.7937 237.119 55.6825 237.119 55.5713V53.8477C237.119 53.7365 237.008 53.6253 236.896 53.6253H231.768C230.988 53.6253 230.319 52.9582 230.319 52.1798V50.4562C230.319 49.6778 230.988 49.0106 231.768 49.0106H236.896C237.677 49.0106 238.346 49.6778 238.346 50.4562V50.9566Z"
        fill="white"
      />
      <path
        d="M240.687 51.7905V55.5713C240.687 55.6825 240.798 55.7937 240.91 55.7937H243.306V57.0168H240.91C240.129 57.0168 239.46 56.3497 239.46 55.5713V48.4546H240.687V50.5674H243.306V51.7905H240.687Z"
        fill="white"
      />
      <path
        d="M249.048 50.5674V51.7906H245.425C245.313 51.7906 245.202 51.9018 245.202 52.013V57.0169H243.975V52.013C243.975 51.2346 244.644 50.5674 245.425 50.5674H249.048Z"
        fill="white"
      />
      <path
        d="M250.887 48.5101V49.7333H249.661V48.5101H250.887ZM249.717 50.5673H250.943V56.9612H249.717V50.5673Z"
        fill="white"
      />
      <path
        d="M258.524 50.5673V50.7341L255.737 53.792L258.524 56.85V57.0168H257.075L254.678 54.4036H253.228V57.0168H252.058V48.5101H253.228V53.1805H254.678L257.075 50.5673H258.524Z"
        fill="white"
      />
      <path
        d="M265.436 52.013V54.4037H260.085V55.5713C260.085 55.6825 260.196 55.7937 260.308 55.7937H265.436V57.0169H260.363C259.583 57.0169 258.914 56.3497 258.914 55.5713V52.013C258.914 51.2346 259.583 50.5674 260.363 50.5674H264.042C264.823 50.5674 265.436 51.2346 265.436 52.013ZM264.265 53.1805V52.013C264.265 51.9018 264.154 51.7906 264.042 51.7906H260.363C260.252 51.7906 260.14 51.9018 260.14 52.013V53.1805H264.265Z"
        fill="white"
      />
      <path
        d="M113.763 50.5674V51.7906H110.14C110.028 51.7906 109.917 51.9018 109.917 52.013V57.0169H108.691V52.013C108.691 51.2346 109.359 50.5674 110.14 50.5674H113.763Z"
        fill="white"
      />
      <path
        d="M115.603 48.5101V49.7333H114.376V48.5101H115.603ZM114.376 50.5673H115.603V56.9612H114.376V50.5673Z"
        fill="white"
      />
      <path
        d="M124.633 50.5674L121.121 57.0169H119.895L116.327 50.5674H117.721L120.508 55.6825L123.295 50.5674H124.633Z"
        fill="white"
      />
      <path
        d="M131.322 52.013V54.4037H125.97V55.5713C125.97 55.6825 126.082 55.7937 126.193 55.7937H131.322V57.0169H126.193C125.413 57.0169 124.744 56.3497 124.744 55.5713V52.013C124.744 51.2346 125.413 50.5674 126.193 50.5674H129.872C130.653 50.5674 131.322 51.2346 131.322 52.013ZM130.095 53.1805V52.013C130.095 51.9018 129.984 51.7906 129.872 51.7906H126.193C126.082 51.7906 125.97 51.9018 125.97 52.013V53.1805H130.095Z"
        fill="white"
      />
      <path
        d="M133.719 55.7937H132.492V57.0169H133.719V55.7937Z"
        fill="white"
      />
      <path d="M268 55.7937H266.774V57.0169H268V55.7937Z" fill="white" />
      <path
        d="M137.955 49.0106H139.125V55.7937H145.926V57.0169H137.955V49.0106Z"
        fill="white"
      />
      <path
        d="M151.612 50.5674C152.392 50.5674 153.061 51.2346 153.061 52.013V55.5713C153.061 56.3497 152.392 57.0169 151.612 57.0169H147.933C147.152 57.0169 146.483 56.3497 146.483 55.5713V52.013C146.483 51.2346 147.152 50.5674 147.933 50.5674H151.612ZM147.933 51.7906C147.821 51.7906 147.71 51.9018 147.71 52.013V55.5713C147.71 55.6825 147.821 55.7937 147.933 55.7937H151.612C151.723 55.7937 151.835 55.6825 151.835 55.5713V52.013C151.835 51.9018 151.723 51.7906 151.612 51.7906H147.933Z"
        fill="white"
      />
      <path
        d="M161.757 50.5674L158.245 57.0169H157.019L153.451 50.5674H154.845L157.632 55.6825L160.419 50.5674H161.757Z"
        fill="white"
      />
      <path
        d="M168.446 52.013V54.4037H163.094V55.5713C163.094 55.6825 163.206 55.7937 163.317 55.7937H168.446V57.0169H163.317C162.537 57.0169 161.868 56.3497 161.868 55.5713V52.013C161.868 51.2346 162.537 50.5674 163.317 50.5674H166.996C167.777 50.5674 168.446 51.2346 168.446 52.013ZM167.219 53.1805V52.013C167.219 51.9018 167.108 51.7906 166.996 51.7906H163.317C163.206 51.7906 163.094 51.9018 163.094 52.013V53.1805H167.219Z"
        fill="white"
      />
      <path
        d="M170.787 55.7937H169.56V57.0169H170.787V55.7937Z"
        fill="white"
      />
      <path
        d="M104.956 50.2893C105.681 50.2893 106.294 50.9009 106.294 51.6237V54.4593C106.294 55.1821 105.681 55.7936 104.956 55.7936H100.775V50.2893H104.956ZM104.956 49.0662H99.549V57.0168H104.956C106.405 57.0168 107.52 55.8492 107.52 54.4593V51.6237C107.52 50.1781 106.349 49.0662 104.956 49.0662Z"
        fill="white"
      />
    </g>
    <defs>
      <linearGradient
        id="paint0_linear_2_875"
        x1="12.893"
        y1="62.7325"
        x2="44.5533"
        y2="46.3091"
        gradientUnits="userSpaceOnUse"
      >
        <stop stopColor="#6311DD" />
        <stop offset="1" stopColor="#6311DD" stopOpacity="0" />
      </linearGradient>
      <linearGradient
        id="paint1_linear_2_875"
        x1="59.4595"
        y1="-0.733919"
        x2="34.0297"
        y2="25.2125"
        gradientUnits="userSpaceOnUse"
      >
        <stop stopColor="#6311DD" />
        <stop offset="1" stopColor="#6311DD" stopOpacity="0" />
      </linearGradient>
      <clipPath id="clip0_2_875">
        <rect width="268" height="71" fill="white" />
      </clipPath>
    </defs>

  </symbol>

  <symbol
    id="stars"
    xmlns="http://www.w3.org/2000/svg"
    role="img"
    aria-labelledby="pi-master"
  >
    <path
      d="M63.6517 12.1302L63.3506 12.5871L63.5734 13.087L63.1164 12.7859L62.6165 13.0086L62.9176 12.5516L62.6949 12.0518L63.1519 12.3529L63.6517 12.1302Z"
      fill="white" />
    <path
      d="M274.88 0.583895L274.578 1.04085L274.801 1.54073L274.344 1.23962L273.844 1.46234L274.145 1.00538L273.923 0.505506L274.38 0.80661L274.88 0.583895Z"
      fill="white" />
    <path
      d="M286.426 80.7283L286.125 81.1853L286.347 81.6851L285.89 81.384L285.391 81.6067L285.692 81.1498L285.469 80.6499L285.926 80.951L286.426 80.7283Z"
      fill="white" />
    <path
      d="M155.342 27.0723L155.041 27.5293L155.264 28.0291L154.807 27.728L154.307 27.9507L154.608 27.4938L154.385 26.9939L154.842 27.295L155.342 27.0723Z"
      fill="white" />
    <path
      d="M149.909 132.347L149.608 132.804L149.83 133.303L149.373 133.002L148.874 133.225L149.175 132.768L148.952 132.268L149.409 132.569L149.909 132.347Z"
      fill="white" />
    <path
      d="M556.064 122.838L555.763 123.295L555.985 123.795L555.529 123.494L555.029 123.716L555.33 123.259L555.107 122.76L555.564 123.061L556.064 122.838Z"
      fill="white" />
    <path
      d="M873.924 108.575L873.623 109.032L873.846 109.532L873.389 109.231L872.889 109.453L873.19 108.996L872.968 108.497L873.425 108.798L873.924 108.575Z"
      fill="white" />
    <path
      d="M788.347 321.84L788.045 322.297L788.268 322.797L787.811 322.496L787.311 322.719L787.612 322.262L787.39 321.762L787.847 322.063L788.347 321.84Z"
      fill="white" />
    <path
      d="M875.962 457.678L875.661 458.135L875.884 458.635L875.427 458.334L874.927 458.557L875.228 458.1L875.005 457.6L875.462 457.901L875.962 457.678Z"
      fill="white" />
    <path
      d="M666.093 481.45L665.791 481.907L666.014 482.407L665.557 482.106L665.057 482.328L665.358 481.871L665.136 481.371L665.593 481.673L666.093 481.45Z"
      fill="white" />
    <path
      d="M424.301 455.641L424 456.098L424.223 456.597L423.766 456.296L423.266 456.519L423.567 456.062L423.344 455.562L423.801 455.863L424.301 455.641Z"
      fill="white" />
    <path
      d="M543.838 198.228L543.537 198.685L543.76 199.185L543.303 198.884L542.803 199.106L543.104 198.649L542.882 198.15L543.339 198.451L543.838 198.228Z"
      fill="white" />
    <path
      d="M359.099 144.572L358.798 145.029L359.021 145.529L358.564 145.228L358.064 145.45L358.365 144.994L358.142 144.494L358.599 144.795L359.099 144.572Z"
      fill="white" />
    <path
      d="M217.149 401.306L216.847 401.763L217.07 402.262L216.613 401.961L216.113 402.184L216.414 401.727L216.192 401.227L216.649 401.528L217.149 401.306Z"
      fill="white" />
    <path
      d="M52.1055 323.878L51.8044 324.335L52.0271 324.835L51.5701 324.534L51.0703 324.756L51.3714 324.299L51.1486 323.8L51.6056 324.101L52.1055 323.878Z"
      fill="white" />
    <path
      d="M54.1431 88.1993L53.842 88.6562L54.0647 89.1561L53.6077 88.855L53.1079 89.0777L53.409 88.6207L53.1862 88.1209L53.6432 88.422L54.1431 88.1993Z"
      fill="white" />
    <path
      d="M272.842 110.613L272.541 111.07L272.764 111.569L272.307 111.268L271.807 111.491L272.108 111.034L271.885 110.534L272.342 110.835L272.842 110.613Z"
      fill="white" />
    <path
      d="M657.942 112.65L657.641 113.107L657.864 113.607L657.407 113.306L656.907 113.529L657.208 113.072L656.985 112.572L657.442 112.873L657.942 112.65Z"
      fill="white" />
    <path
      d="M583.911 272.26L583.61 272.717L583.832 273.216L583.375 272.915L582.875 273.138L583.177 272.681L582.954 272.181L583.411 272.482L583.911 272.26Z"
      fill="white" />
    <path
      d="M493.579 355.8L493.277 356.257L493.5 356.757L493.043 356.456L492.543 356.678L492.844 356.221L492.622 355.721L493.079 356.023L493.579 355.8Z"
      fill="white" />
    <path
      d="M368.608 166.985L368.307 167.442L368.529 167.942L368.072 167.641L367.572 167.864L367.874 167.407L367.651 166.907L368.108 167.208L368.608 166.985Z"
      fill="white" />
    <path
      d="M515.992 44.052L515.691 44.509L515.913 45.0089L515.456 44.7078L514.957 44.9305L515.258 44.4735L515.035 43.9736L515.492 44.2747L515.992 44.052Z"
      fill="white" />
    <path
      d="M77.9147 393.835L77.6136 394.291L77.8364 394.791L77.3794 394.49L76.8795 394.713L77.1806 394.256L76.9579 393.756L77.4149 394.057L77.9147 393.835Z"
      fill="white" />
    <path
      d="M61.6141 188.719L61.313 189.176L61.5358 189.676L61.0788 189.375L60.5789 189.598L60.88 189.141L60.6573 188.641L61.1143 188.942L61.6141 188.719Z"
      fill="white" />
    <path
      d="M435.847 181.248L435.546 181.705L435.769 182.205L435.312 181.904L434.812 182.127L435.113 181.67L434.891 181.17L435.348 181.471L435.847 181.248Z"
      fill="white" />
    <path
      d="M585.948 469.904L585.647 470.361L585.87 470.86L585.413 470.559L584.913 470.782L585.214 470.325L584.991 469.825L585.448 470.126L585.948 469.904Z"
      fill="white" />
    <path
      d="M329.215 529.672L328.914 530.129L329.136 530.629L328.679 530.328L328.18 530.551L328.481 530.094L328.258 529.594L328.715 529.895L329.215 529.672Z"
      fill="white" />
    <path
      d="M327.177 279.052L326.876 279.509L327.099 280.008L326.642 279.707L326.142 279.93L326.443 279.473L326.22 278.973L326.677 279.274L327.177 279.052Z"
      fill="white" />
    <path
      d="M919.43 479.412L919.129 479.869L919.352 480.369L918.895 480.068L918.395 480.291L918.696 479.834L918.473 479.334L918.93 479.635L919.43 479.412Z"
      fill="white" />
    <path
      d="M779.517 561.594L779.216 562.051L779.439 562.551L778.982 562.25L778.482 562.473L778.783 562.016L778.56 561.516L779.017 561.817L779.517 561.594Z"
      fill="white" />
    <path
      d="M687.826 268.864L687.525 269.321L687.748 269.82L687.291 269.519L686.791 269.742L687.092 269.285L686.87 268.785L687.327 269.086L687.826 268.864Z"
      fill="white" />
    <path
      d="M399.611 325.754L399.008 326.669L399.454 327.669L398.54 327.067L397.539 327.512L398.142 326.598L397.696 325.598L398.611 326.2L399.611 325.754Z"
      fill="white" />
    <path
      d="M231.528 210.292L230.926 211.207L231.372 212.207L230.457 211.604L229.457 212.05L230.06 211.136L229.614 210.135L230.528 210.738L231.528 210.292Z"
      fill="white" />
    <path
      d="M637.684 14.6859L637.081 15.6003L637.527 16.6005L636.612 15.998L635.612 16.4437L636.215 15.5293L635.769 14.529L636.683 15.1315L637.684 14.6859Z"
      fill="white" />
    <path
      d="M620.704 327.792L620.101 328.706L620.547 329.707L619.633 329.104L618.632 329.55L619.235 328.635L618.789 327.635L619.704 328.238L620.704 327.792Z"
      fill="white" />
    <path
      d="M146.63 311.492L146.027 312.406L146.473 313.406L145.559 312.804L144.558 313.249L145.161 312.335L144.715 311.335L145.63 311.937L146.63 311.492Z"
      fill="white" />
    <path
      d="M124.217 526.115L123.614 527.03L124.06 528.03L123.145 527.427L122.145 527.873L122.748 526.959L122.302 525.958L123.216 526.561L124.217 526.115Z"
      fill="white" />
    <path
      d="M49.5058 271.419L48.9033 272.334L49.349 273.334L48.4346 272.731L47.4344 273.177L48.0369 272.263L47.5912 271.262L48.5056 271.865L49.5058 271.419Z"
      fill="white" />
    <path
      d="M42.0347 484.005L41.4322 484.92L41.8778 485.92L40.9635 485.318L39.9632 485.763L40.5657 484.849L40.1201 483.849L41.0345 484.451L42.0347 484.005Z"
      fill="white" />
    <path
      d="M16.2255 113.168L15.623 114.083L16.0686 115.083L15.1543 114.48L14.154 114.926L14.7565 114.012L14.3109 113.011L15.2253 113.614L16.2255 113.168Z"
      fill="white" />
    <path
      d="M651.433 50.1074L650.897 50.2176L650.701 50.7285L650.591 50.1925L650.08 49.9965L650.616 49.8863L650.812 49.3754L650.922 49.9114L651.433 50.1074Z"
      fill="white" />
    <path
      d="M461.25 17.4498L460.714 17.56L460.518 18.0709L460.408 17.5349L459.897 17.3389L460.433 17.2287L460.629 16.7178L460.739 17.2538L461.25 17.4498Z"
      fill="white" />
    <path
      d="M622.137 237.889L621.601 237.999L621.405 238.51L621.295 237.974L620.784 237.778L621.32 237.668L621.516 237.157L621.626 237.693L622.137 237.889Z"
      fill="white" />
    <path
      d="M809.438 235.968L808.902 236.078L808.706 236.589L808.596 236.053L808.085 235.857L808.621 235.747L808.817 235.236L808.927 235.772L809.438 235.968Z"
      fill="white" />
    <path
      d="M856.984 452.565L856.448 452.675L856.252 453.186L856.142 452.65L855.631 452.454L856.167 452.344L856.363 451.833L856.473 452.369L856.984 452.565Z"
      fill="white" />
    <path
      d="M645.67 542.853L645.134 542.964L644.938 543.474L644.828 542.938L644.317 542.742L644.853 542.632L645.049 542.121L645.159 542.657L645.67 542.853Z"
      fill="white" />
    <path
      d="M611.571 700.859L611.035 700.969L610.839 701.48L610.729 700.944L610.218 700.748L610.754 700.638L610.95 700.127L611.06 700.663L611.571 700.859Z"
      fill="white" />
    <path
      d="M446.362 569.268L445.826 569.378L445.63 569.889L445.52 569.353L445.009 569.157L445.545 569.047L445.741 568.536L445.851 569.072L446.362 569.268Z"
      fill="white" />
    <path
      d="M293.64 380.045L293.104 380.156L292.908 380.667L292.797 380.131L292.287 379.935L292.823 379.824L293.019 379.313L293.129 379.849L293.64 380.045Z"
      fill="white" />
    <path
      d="M560.184 282.553L559.648 282.663L559.452 283.174L559.341 282.638L558.83 282.442L559.366 282.332L559.562 281.821L559.673 282.357L560.184 282.553Z"
      fill="white" />
    <path
      d="M467.494 113.982L466.957 114.092L466.762 114.603L466.651 114.067L466.14 113.871L466.676 113.761L466.872 113.25L466.983 113.786L467.494 113.982Z"
      fill="white" />
    <path
      d="M185.581 195.146L185.045 195.256L184.849 195.767L184.739 195.231L184.228 195.035L184.764 194.925L184.96 194.414L185.07 194.95L185.581 195.146Z"
      fill="white" />
    <path
      d="M123.628 23.6932L123.092 23.8034L122.896 24.3143L122.786 23.7783L122.275 23.5823L122.811 23.4721L123.007 22.9612L123.117 23.4972L123.628 23.6932Z"
      fill="white" />
    <path
      d="M430.514 28.976L429.978 29.0862L429.782 29.5972L429.671 29.0611L429.16 28.8652L429.696 28.755L429.892 28.244L430.003 28.78L430.514 28.976Z"
      fill="white" />
    <path
      d="M701.38 302.724L700.844 302.834L700.648 303.345L700.538 302.809L700.027 302.613L700.563 302.503L700.759 301.992L700.869 302.528L701.38 302.724Z"
      fill="white" />
    <path
      d="M536.171 363.236L535.635 363.347L535.439 363.858L535.328 363.322L534.817 363.126L535.353 363.015L535.549 362.504L535.66 363.04L536.171 363.236Z"
      fill="white" />
    <path
      d="M413.224 358.434L412.688 358.544L412.492 359.055L412.382 358.519L411.871 358.323L412.407 358.213L412.603 357.702L412.713 358.238L413.224 358.434Z"
      fill="white" />
    <path
      d="M458.369 136.554L457.833 136.664L457.637 137.175L457.526 136.639L457.015 136.443L457.552 136.333L457.747 135.822L457.858 136.358L458.369 136.554Z"
      fill="white" />
    <path
      d="M649.512 153.843L648.976 153.954L648.78 154.465L648.67 153.929L648.159 153.733L648.695 153.622L648.891 153.111L649.001 153.647L649.512 153.843Z"
      fill="white" />
    <path
      d="M92.4111 91.4097L91.875 91.5199L91.679 92.0309L91.5688 91.4949L91.0579 91.2989L91.5939 91.1887L91.7899 90.6777L91.9001 91.2138L92.4111 91.4097Z"
      fill="white" />
    <path
      d="M495.829 194.185L495.293 194.295L495.097 194.806L494.987 194.27L494.476 194.074L495.012 193.964L495.208 193.453L495.318 193.989L495.829 194.185Z"
      fill="white" />
    <path
      d="M397.856 504.433L397.32 504.543L397.124 505.054L397.014 504.518L396.503 504.322L397.039 504.212L397.235 503.701L397.345 504.237L397.856 504.433Z"
      fill="white" />
    <path
      d="M174.055 365.158L173.519 365.268L173.323 365.779L173.213 365.243L172.702 365.047L173.238 364.936L173.434 364.426L173.544 364.962L174.055 365.158Z"
      fill="white" />
    <path
      d="M349.83 186.501L349.294 186.611L349.098 187.122L348.988 186.586L348.477 186.39L349.013 186.28L349.209 185.769L349.319 186.305L349.83 186.501Z"
      fill="white" />
    <path
      d="M940.069 341.625L939.533 341.735L939.337 342.246L939.226 341.71L938.715 341.514L939.252 341.404L939.447 340.893L939.558 341.429L940.069 341.625Z"
      fill="white" />
    <path
      d="M1001.06 362.276L1000.53 362.386L1000.33 362.897L1000.22 362.361L999.708 362.165L1000.24 362.055L1000.44 361.544L1000.55 362.08L1001.06 362.276Z"
      fill="white" />
    <path
      d="M626.94 746.964L626.404 747.074L626.208 747.585L626.097 747.049L625.586 746.853L626.122 746.743L626.318 746.232L626.429 746.768L626.94 746.964Z"
      fill="white" />
    <path
      d="M469.895 706.142L469.359 706.252L469.163 706.763L469.053 706.227L468.542 706.031L469.078 705.92L469.274 705.41L469.384 705.946L469.895 706.142Z"
      fill="white" />
    <path
      d="M612.052 434.315L611.516 434.425L611.32 434.936L611.209 434.4L610.698 434.204L611.234 434.094L611.43 433.583L611.541 434.119L612.052 434.315Z"
      fill="white" />
    <path
      d="M368.024 270.743L366.952 270.964L366.56 271.986L366.339 270.914L365.317 270.522L366.389 270.301L366.781 269.279L367.002 270.351L368.024 270.743Z"
      fill="white" />
    <path
      d="M330.816 70.2472L329.744 70.4677L329.352 71.4901L329.131 70.4175L328.109 70.0253L329.181 69.8048L329.573 68.7824L329.794 69.855L330.816 70.2472Z"
      fill="white" />
    <path
      d="M756.326 219.128L755.253 219.348L754.861 220.37L754.641 219.298L753.618 218.906L754.691 218.685L755.083 217.663L755.304 218.735L756.326 219.128Z"
      fill="white" />
    <path
      d="M704.938 46.7144L703.866 46.935L703.473 47.9574L703.253 46.8848L702.231 46.4926L703.303 46.2721L703.695 45.2497L703.916 46.3223L704.938 46.7144Z"
      fill="white" />
    <path
      d="M915.772 229.693L914.699 229.914L914.307 230.936L914.087 229.864L913.064 229.471L914.137 229.251L914.529 228.228L914.75 229.301L915.772 229.693Z"
      fill="white" />
    <path
      d="M522.92 428.521L521.847 428.741L521.455 429.764L521.235 428.691L520.212 428.299L521.285 428.078L521.677 427.056L521.898 428.128L522.92 428.521Z"
      fill="white" />
    <path
      d="M199.225 81.7734L198.153 81.9939L197.76 83.0163L197.54 81.9437L196.518 81.5516L197.59 81.331L197.982 80.3086L198.203 81.3812L199.225 81.7734Z"
      fill="white" />
    <path
      d="M31.6148 217.687L30.5422 217.907L30.15 218.93L29.9295 217.857L28.9071 217.465L29.9797 217.244L30.3719 216.222L30.5924 217.295L31.6148 217.687Z"
      fill="white" />
    <path
      d="M3.27947 129.799L2.20687 130.02L1.81471 131.042L1.59419 129.97L0.571781 129.577L1.64438 129.357L2.03654 128.335L2.25706 129.407L3.27947 129.799Z"
      fill="white" />
  </symbol>

  <symbol id="skin-club-footer-logo"
    xmlns="http://www.w3.org/2000/svg"
    aria-labelledby="pi-master">
    <path fill-rule="evenodd" clip-rule="evenodd"
      d="M25.4008 46.0042L46.9008 24.5042C48.7008 22.7042 51.5008 22.7042 53.2008 24.5042L60.5008 31.8042C62.3008 33.6042 62.3008 36.4042 60.5008 38.1042L39.0008 59.7042C37.2008 61.5042 34.4008 61.5042 32.7008 59.7042L25.4008 52.4042C23.6008 50.6042 23.6008 47.8042 25.4008 46.0042Z"
      fill="#1B1A2A" />
    <path opacity="0.5" fill-rule="evenodd" clip-rule="evenodd"
      d="M50.5008 39.2042C52.3008 37.4042 52.3008 34.6042 50.5008 32.9042L44.5008 26.9042L25.4008 46.0042C23.6008 47.8042 23.6008 50.6042 25.4008 52.3042L31.4008 58.3042L50.5008 39.2042Z"
      fill="#110F1D" />
    <path fill-rule="evenodd" clip-rule="evenodd"
      d="M3.50039 22.5011L24.1004 1.80111C25.9004 0.00111079 28.7004 0.00111079 30.4004 1.80111L37.7004 9.10111C39.5004 10.9011 39.5004 13.7011 37.7004 15.4011L17.1004 36.1011C15.3004 37.9011 12.5004 37.9011 10.8004 36.1011L3.50039 28.8011C1.70039 27.1011 1.70039 24.2011 3.50039 22.5011Z"
      fill="#1B1A2A" />
    <path opacity="0.5" fill-rule="evenodd" clip-rule="evenodd"
      d="M37.8004 15.5011C39.6004 13.7011 39.6004 10.9011 37.8004 9.20111L32.3004 3.70111L13.5004 22.5011C11.7004 24.3011 11.7004 27.1011 13.5004 28.8011L19.0004 34.3011L37.8004 15.5011Z"
      fill="#110F1D" />
    <path fill-rule="evenodd" clip-rule="evenodd"
      d="M63.6 19.1011L57.9 20.1011C56.9 20.3011 56 20.0011 55.3 19.3011L43.4 7.40111C40.8 4.80111 36.4 4.80111 33.8 7.40111L0.199967 40.9011C-0.300033 41.4011 0.0999672 42.1011 0.799967 42.0011L6.99997 41.0011C7.89997 40.9011 8.79997 41.1011 9.39997 41.8011L21.2 53.6011C24.2 56.6011 28.1 56.4011 31.1 53.3011L64.2 20.2011C64.7 19.7011 64.2 18.9011 63.6 19.1011ZM44.3 25.7011L29 41.0011C27.5 42.5011 25 42.5011 23.5 41.0011L20.2 37.7011C19.7 37.2011 19.6 36.3011 20.2 35.7011L35.8 20.1011C37.1 18.8011 39.3 18.8011 40.6 20.1011L44.3 23.8011C44.8 24.3011 44.8 25.2011 44.3 25.7011Z"
      fill="#2B2936" />
  </symbol>

  <symbol id="skin-club-footer-mobile-logo"
    xmlns="http://www.w3.org/2000/svg"
    aria-labelledby="pi-master">
    <path fill-rule="evenodd" clip-rule="evenodd"
      d="M12.8273 22.1738L22.8385 12.1689C23.6766 11.3312 24.9804 11.3312 25.772 12.1689L29.1711 15.5659C30.0093 16.4035 30.0093 17.7065 29.1711 18.4976L19.16 28.549C18.3218 29.3866 17.0181 29.3866 16.2265 28.549L12.8273 25.152C11.9892 24.3144 11.9892 23.0114 12.8273 22.1738Z"
      fill="#1B1A2A" />
    <path opacity="0.5" fill-rule="evenodd" clip-rule="evenodd"
      d="M24.5148 19.0094C25.3529 18.1718 25.3529 16.8688 24.5148 16.0777L21.721 13.2856L12.8273 22.1737C11.9892 23.0114 11.9892 24.3143 12.8273 25.1054L15.6212 27.8975L24.5148 19.0094Z"
      fill="#110F1D" />
    <path fill-rule="evenodd" clip-rule="evenodd"
      d="M2.62995 11.238L12.222 1.60539C13.0602 0.767768 14.364 0.767768 15.1555 1.60539L18.5547 5.00241C19.3928 5.84003 19.3928 7.143 18.5547 7.93408L8.96259 17.5667C8.12445 18.4043 6.82067 18.4043 6.02909 17.5667L2.62995 14.1697C1.79181 13.3786 1.79181 12.0291 2.62995 11.238Z"
      fill="#1B1A2A" />
    <path opacity="0.5" fill-rule="evenodd" clip-rule="evenodd"
      d="M18.6011 7.98058C19.4393 7.14295 19.4393 5.83999 18.6011 5.0489L16.0401 2.4895L7.2862 11.238C6.44806 12.0756 6.44806 13.3786 7.2862 14.1697L9.8472 16.7291L18.6011 7.98058Z"
      fill="#110F1D" />
    <path fill-rule="evenodd" clip-rule="evenodd"
      d="M30.6146 9.65592L27.9605 10.1213C27.4948 10.2143 27.0757 10.0747 26.7498 9.74899L21.2087 4.21138C19.9981 3.00148 17.9493 3.00148 16.7386 4.21138L1.09328 19.8004C0.860465 20.0331 1.04672 20.3589 1.37266 20.3123L4.2596 19.847C4.67868 19.8004 5.09775 19.8935 5.37713 20.2193L10.8716 25.7103C12.2685 27.1064 14.0845 27.0133 15.4814 25.5707L30.894 10.1678C31.1268 9.93513 30.894 9.56285 30.6146 9.65592ZM21.6278 12.7272L14.5036 19.847C13.8051 20.545 12.641 20.545 11.9426 19.847L10.406 18.3113C10.1732 18.0787 10.1266 17.6599 10.406 17.3807L17.6699 10.1213C18.2752 9.51632 19.2996 9.51632 19.905 10.1213L21.6278 11.843C21.8606 12.0757 21.8606 12.4945 21.6278 12.7272Z"
      fill="#2B2936" />
  </symbol>

  <symbol id="skin-club-footer-support-email"
    xmlns="http://www.w3.org/2000/svg"
    role="img"
    aria-labelledby="pi-master">
    <g clip-path="url(#clip0_2_869)">
      <path
        d="M19 12.168C19 12.578 18.88 12.958 18.69 13.288L12.69 6.69799L18.62 1.59799C18.86 1.94799 19 2.37799 19 2.82799V12.168ZM9.5 7.88799L17.76 0.787986C17.42 0.607986 17.04 0.497986 16.62 0.497986H2.37C1.96 0.497986 1.58 0.607986 1.24 0.787986L9.5 7.88799ZM11.8 7.45799L9.89 9.10799C9.78 9.19799 9.64 9.24799 9.5 9.24799C9.36 9.24799 9.22 9.19799 9.11 9.10799L7.2 7.45799L1.13 14.138C1.49 14.368 1.91 14.498 2.37 14.498H16.62C17.08 14.498 17.51 14.368 17.87 14.138L11.8 7.45799ZM0.37 1.58799C0.14 1.94799 0 2.37799 0 2.82799V12.158C0 12.568 0.12 12.948 0.3 13.278L6.3 6.67799L0.37 1.58799Z"
        fill="#413D4B" />
    </g>
    <defs>
      <clipPath id="clip0_2_869">
        <rect width="19" height="14" fill="white" transform="translate(0 0.497986)" />
      </clipPath>
    </defs>
  </symbol>

  <symbol id="skin-club-footer-support-faq"
    xmlns="http://www.w3.org/2000/svg"
    role="img"
    aria-labelledby="pi-master">
    <g clip-path="url(#clip0_2_873)">
      <path
        d="M6.9106 0.498584C3.0406 0.548584 -0.0494017 3.72858 0.00059833 7.58858C0.0505983 11.4486 3.2306 14.5486 7.0906 14.4886C10.9506 14.4386 14.0506 11.2586 14.0006 7.39858C13.9506 3.53858 10.7706 0.448584 6.9106 0.498584ZM6.8906 11.7586H6.8506C6.2506 11.7386 5.8406 11.2986 5.8506 10.7186C5.8706 10.1386 6.3006 9.71858 6.8706 9.71858H6.9006C7.5106 9.73858 7.9306 10.1686 7.9106 10.7786C7.9006 11.3586 7.4806 11.7586 6.8906 11.7586ZM9.3906 6.78858C9.2506 6.98858 8.9406 7.23858 8.5506 7.53858L8.1306 7.82858C7.8906 8.01858 7.7506 8.18858 7.7006 8.35858C7.6606 8.48858 7.6406 8.51858 7.6306 8.78858V8.85858H6.0006V8.71858C6.0206 8.14858 6.0306 7.81858 6.2706 7.53858C6.6406 7.10858 7.4506 6.57858 7.4906 6.55858C7.6106 6.46858 7.7006 6.36858 7.7806 6.26858C7.9506 6.02858 8.0306 5.84858 8.0306 5.66858C8.0306 5.41858 7.9506 5.17858 7.8106 4.96858C7.6606 4.76858 7.3906 4.66858 7.0006 4.66858C6.6106 4.66858 6.3406 4.78858 6.1806 5.04858C6.0206 5.30858 5.9306 5.57858 5.9306 5.85858V5.92858H4.2506V5.85858C4.2906 4.82858 4.6606 4.08858 5.3406 3.65858C5.7706 3.37858 6.3006 3.23858 6.9206 3.23858C7.7306 3.23858 8.4206 3.43858 8.9606 3.82858C9.5206 4.21858 9.8006 4.80858 9.8006 5.58858C9.8006 6.01858 9.6606 6.41858 9.3906 6.78858Z"
        fill="#413D4B" />
    </g>
    <defs>
      <clipPath id="clip0_2_873">
        <rect width="14" height="14" fill="white" transform="translate(0 0.497986)" />
      </clipPath>
    </defs>
  </symbol>

</svg>